<svg xmlns="http://www.w3.org/2000/svg" xmlns:xlink="http://www.w3.org/1999/xlink"
     viewBox="-140 -110 1200 500" width="1200" height="500">
  <!-- tablet -->
  <g fill="white" stroke="dimgray" transform="translate(10,80)">
    <rect x="0" y="0" width="120" height="190" rx="10" ry="10" stroke-width="6"/>
    <rect x="10" y="20" width="100" height="150" stroke-width="2" rx="2" ry="2"/>
    <circle cx="60" cy="10" r="4" fill="dimgray"/>
  </g>

  <!-- desktop -->
  <g fill="white" stroke="dimgray" transform="translate(300,10)">
    <rect x="200" y="310" width="120" height="30" stroke-width="6"/>
    <rect x="0" y="0" width="520" height="310" rx="10" ry="10" stroke-width="6"/>
    <rect x="20" y="20" width="480" height="270" rx="2" ry="2" stroke-width="2"/>
    <rect x="530" y="100" width="80" height="240" rx="10" ry="10" stroke-width="6"/>
    <circle cx="570" cy="220" r="8" stroke-width="2"/>
    <circle cx="570" cy="250" r="4" stroke-width="2"/>
  </g>

  <!-- ufo -->
  <use xmlns:xlink="http://www.w3.org/1999/xlink" xlink:href="#ufo"
       transform="translate(-70,130) scale(0.25,0.25)" opacity="0.25"/>
  <use xmlns:xlink="http://www.w3.org/1999/xlink" xlink:href="#ufo"
       transform="translate(-70,80) scale(0.40,0.40)" opacity="0.30"/>
  <use xmlns:xlink="http://www.w3.org/1999/xlink" xlink:href="#ufo"
       transform="translate(-70,30) scale(0.60,0.60)" opacity="0.40"/>
  <use xmlns:xlink="http://www.w3.org/1999/xlink" xlink:href="#ufo"
       transform="translate(-70,0) scale(0.80,0.80)" opacity="0.50"/>
  <g id="ufo" stroke="dimgray" stroke-width="6" transform="translate(360,60)">
    <circle cx="200" cy="100" r="100" fill="darkgray"/>
    <circle cx="125" cy="165" r="48" fill="orange"/>
    <circle cx="275" cy="165" r="48" fill="orange"/>
    <circle cx="200" cy="165" r="50" fill="gold"/>
    <circle cx="200" cy="60" r="30" fill="skyblue" stroke-width="2"/>
    <path d="M300,100 l75,75 h-350 l75,-75" fill="darkgray"
	  stroke-linecap="round" stroke-linejoin="round"/>
    <line x1="100" y1="100" x2="300" y2="100" stroke-width="2"/>
  </g>
</svg>
